<?xml version="1.0" encoding="UTF-8" standalone="no"?>
<!DOCTYPE svg PUBLIC "-//W3C//DTD SVG 1.1//EN"
 "http://www.w3.org/Graphics/SVG/1.1/DTD/svg11.dtd">
<!-- Generated by graphviz version 2.43.0 (0)
 -->
<!-- Title: tools Pages: 1 -->
<svg width="396pt" height="620pt"
 viewBox="0.00 0.00 395.50 620.00" xmlns="http://www.w3.org/2000/svg" xmlns:xlink="http://www.w3.org/1999/xlink">
<g id="graph0" class="graph" transform="scale(1 1) rotate(0) translate(4 616)">
<title>tools</title>
<polygon fill="white" stroke="transparent" points="-4,4 -4,-616 391.5,-616 391.5,4 -4,4"/>
<!-- GHDL -->
<g id="node1" class="node">
<title>GHDL</title>
<polygon fill="none" stroke="black" points="60,-540 0,-540 0,-504 60,-504 60,-540"/>
<text text-anchor="middle" x="30" y="-518.3" font-family="Times,serif" font-size="14.00">GHDL</text>
</g>
<!-- ghdl&#45;yosys&#45;plugin -->
<g id="node2" class="node">
<title>ghdl&#45;yosys&#45;plugin</title>
<polygon fill="none" stroke="black" points="220,-540 78,-540 78,-504 220,-504 220,-540"/>
<text text-anchor="middle" x="149" y="-518.3" font-family="Times,serif" font-size="14.00">ghdl&#45;yosys&#45;plugin</text>
</g>
<!-- GHDL&#45;&gt;ghdl&#45;yosys&#45;plugin -->
<g id="edge3" class="edge">
<title>GHDL&#45;&gt;ghdl&#45;yosys&#45;plugin</title>
<path fill="none" stroke="black" d="M60.21,-522C62.7,-522 65.19,-522 67.68,-522"/>
<polygon fill="black" stroke="black" points="67.9,-525.5 77.9,-522 67.9,-518.5 67.9,-525.5"/>
</g>
<!-- Yosys -->
<g id="node3" class="node">
<title>Yosys</title>
<polygon fill="none" stroke="black" points="294,-540 238,-540 238,-504 294,-504 294,-540"/>
<text text-anchor="middle" x="266" y="-518.3" font-family="Times,serif" font-size="14.00">Yosys</text>
</g>
<!-- ghdl&#45;yosys&#45;plugin&#45;&gt;Yosys -->
<g id="edge4" class="edge">
<title>ghdl&#45;yosys&#45;plugin&#45;&gt;Yosys</title>
<path fill="none" stroke="black" d="M220.3,-522C222.76,-522 225.22,-522 227.68,-522"/>
<polygon fill="black" stroke="black" points="227.79,-525.5 237.79,-522 227.79,-518.5 227.79,-525.5"/>
</g>
<!-- .json -->
<g id="node15" class="node">
<title>.json</title>
<ellipse fill="none" stroke="black" cx="266" cy="-450" rx="32.49" ry="18"/>
<text text-anchor="middle" x="266" y="-446.3" font-family="Times,serif" font-size="14.00">.json</text>
</g>
<!-- Yosys&#45;&gt;.json -->
<g id="edge6" class="edge">
<title>Yosys&#45;&gt;.json</title>
<path fill="none" stroke="black" d="M266,-503.7C266,-495.98 266,-486.71 266,-478.11"/>
<polygon fill="black" stroke="black" points="269.5,-478.1 266,-468.1 262.5,-478.1 269.5,-478.1"/>
</g>
<!-- nextpnr&#45;ice40 -->
<g id="node4" class="node">
<title>nextpnr&#45;ice40</title>
<polygon fill="none" stroke="black" points="258,-396 142,-396 142,-360 258,-360 258,-396"/>
<text text-anchor="middle" x="200" y="-374.3" font-family="Times,serif" font-size="14.00">nextpnr&#45;ice40</text>
</g>
<!-- .asc -->
<g id="node16" class="node">
<title>.asc</title>
<ellipse fill="none" stroke="black" cx="200" cy="-306" rx="28.7" ry="18"/>
<text text-anchor="middle" x="200" y="-302.3" font-family="Times,serif" font-size="14.00">.asc</text>
</g>
<!-- nextpnr&#45;ice40&#45;&gt;.asc -->
<g id="edge9" class="edge">
<title>nextpnr&#45;ice40&#45;&gt;.asc</title>
<path fill="none" stroke="black" d="M200,-359.7C200,-351.98 200,-342.71 200,-334.11"/>
<polygon fill="black" stroke="black" points="203.5,-334.1 200,-324.1 196.5,-334.1 203.5,-334.1"/>
</g>
<!-- nextpnr&#45;ecp5 -->
<g id="node5" class="node">
<title>nextpnr&#45;ecp5</title>
<polygon fill="none" stroke="black" points="387.5,-396 276.5,-396 276.5,-360 387.5,-360 387.5,-396"/>
<text text-anchor="middle" x="332" y="-374.3" font-family="Times,serif" font-size="14.00">nextpnr&#45;ecp5</text>
</g>
<!-- .config -->
<g id="node17" class="node">
<title>.config</title>
<ellipse fill="none" stroke="black" cx="332" cy="-306" rx="41.69" ry="18"/>
<text text-anchor="middle" x="332" y="-302.3" font-family="Times,serif" font-size="14.00">.config</text>
</g>
<!-- nextpnr&#45;ecp5&#45;&gt;.config -->
<g id="edge10" class="edge">
<title>nextpnr&#45;ecp5&#45;&gt;.config</title>
<path fill="none" stroke="black" d="M332,-359.7C332,-351.98 332,-342.71 332,-334.11"/>
<polygon fill="black" stroke="black" points="335.5,-334.1 332,-324.1 328.5,-334.1 335.5,-334.1"/>
</g>
<!-- icetime -->
<g id="node6" class="node">
<title>icetime</title>
<polygon fill="none" stroke="black" points="167.5,-252 98.5,-252 98.5,-216 167.5,-216 167.5,-252"/>
<text text-anchor="middle" x="133" y="-230.3" font-family="Times,serif" font-size="14.00">icetime</text>
</g>
<!-- icepack -->
<g id="node7" class="node">
<title>icepack</title>
<polygon fill="none" stroke="black" points="256,-252 186,-252 186,-216 256,-216 256,-252"/>
<text text-anchor="middle" x="221" y="-230.3" font-family="Times,serif" font-size="14.00">icepack</text>
</g>
<!-- bit&#45;ice40 -->
<g id="node13" class="node">
<title>bit&#45;ice40</title>
<ellipse fill="none" stroke="black" cx="221" cy="-162" rx="27" ry="18"/>
<text text-anchor="middle" x="221" y="-158.3" font-family="Times,serif" font-size="14.00">.bit</text>
</g>
<!-- icepack&#45;&gt;bit&#45;ice40 -->
<g id="edge13" class="edge">
<title>icepack&#45;&gt;bit&#45;ice40</title>
<path fill="none" stroke="black" d="M221,-215.7C221,-207.98 221,-198.71 221,-190.11"/>
<polygon fill="black" stroke="black" points="224.5,-190.1 221,-180.1 217.5,-190.1 224.5,-190.1"/>
</g>
<!-- iceprog -->
<g id="node8" class="node">
<title>iceprog</title>
<polygon fill="none" stroke="black" points="256,-108 186,-108 186,-72 256,-72 256,-108"/>
<text text-anchor="middle" x="221" y="-86.3" font-family="Times,serif" font-size="14.00">iceprog</text>
</g>
<!-- ice40 -->
<g id="node12" class="node">
<title>ice40</title>
<polygon fill="none" stroke="black" points="248.5,-36 197.5,-36 193.5,-32 193.5,0 244.5,0 248.5,-4 248.5,-36"/>
<polyline fill="none" stroke="black" points="244.5,-32 193.5,-32 "/>
<polyline fill="none" stroke="black" points="244.5,-32 244.5,0 "/>
<polyline fill="none" stroke="black" points="244.5,-32 248.5,-36 "/>
<text text-anchor="middle" x="221" y="-14.3" font-family="Times,serif" font-size="14.00">ice40</text>
</g>
<!-- iceprog&#45;&gt;ice40 -->
<g id="edge15" class="edge">
<title>iceprog&#45;&gt;ice40</title>
<path fill="none" stroke="black" d="M221,-71.7C221,-63.98 221,-54.71 221,-46.11"/>
<polygon fill="black" stroke="black" points="224.5,-46.1 221,-36.1 217.5,-46.1 224.5,-46.1"/>
</g>
<!-- eccpack -->
<g id="node9" class="node">
<title>eccpack</title>
<polygon fill="none" stroke="black" points="368.5,-252 295.5,-252 295.5,-216 368.5,-216 368.5,-252"/>
<text text-anchor="middle" x="332" y="-230.3" font-family="Times,serif" font-size="14.00">eccpack</text>
</g>
<!-- bit&#45;ecp5 -->
<g id="node14" class="node">
<title>bit&#45;ecp5</title>
<ellipse fill="none" stroke="black" cx="332" cy="-162" rx="27" ry="18"/>
<text text-anchor="middle" x="332" y="-158.3" font-family="Times,serif" font-size="14.00">.bit</text>
</g>
<!-- eccpack&#45;&gt;bit&#45;ecp5 -->
<g id="edge17" class="edge">
<title>eccpack&#45;&gt;bit&#45;ecp5</title>
<path fill="none" stroke="black" d="M332,-215.7C332,-207.98 332,-198.71 332,-190.11"/>
<polygon fill="black" stroke="black" points="335.5,-190.1 332,-180.1 328.5,-190.1 335.5,-190.1"/>
</g>
<!-- VHDL -->
<g id="node10" class="node">
<title>VHDL</title>
<polygon fill="none" stroke="black" points="113.5,-612 60.5,-612 60.5,-576 119.5,-576 119.5,-606 113.5,-612"/>
<polyline fill="none" stroke="black" points="113.5,-612 113.5,-606 "/>
<polyline fill="none" stroke="black" points="119.5,-606 113.5,-606 "/>
<text text-anchor="middle" x="90" y="-590.3" font-family="Times,serif" font-size="14.00">VHDL</text>
</g>
<!-- VHDL&#45;&gt;GHDL -->
<g id="edge1" class="edge">
<title>VHDL&#45;&gt;GHDL</title>
<path fill="none" stroke="black" d="M75.17,-575.7C67.98,-567.3 59.2,-557.07 51.31,-547.86"/>
<polygon fill="black" stroke="black" points="53.83,-545.42 44.66,-540.1 48.51,-549.97 53.83,-545.42"/>
</g>
<!-- VHDL&#45;&gt;ghdl&#45;yosys&#45;plugin -->
<g id="edge2" class="edge">
<title>VHDL&#45;&gt;ghdl&#45;yosys&#45;plugin</title>
<path fill="none" stroke="black" d="M104.58,-575.7C111.66,-567.3 120.28,-557.07 128.05,-547.86"/>
<polygon fill="black" stroke="black" points="130.81,-550.01 134.58,-540.1 125.46,-545.49 130.81,-550.01"/>
</g>
<!-- Verilog -->
<g id="node11" class="node">
<title>Verilog</title>
<polygon fill="none" stroke="black" points="293.5,-612 232.5,-612 232.5,-576 299.5,-576 299.5,-606 293.5,-612"/>
<polyline fill="none" stroke="black" points="293.5,-612 293.5,-606 "/>
<polyline fill="none" stroke="black" points="299.5,-606 293.5,-606 "/>
<text text-anchor="middle" x="266" y="-590.3" font-family="Times,serif" font-size="14.00">Verilog</text>
</g>
<!-- Verilog&#45;&gt;Yosys -->
<g id="edge5" class="edge">
<title>Verilog&#45;&gt;Yosys</title>
<path fill="none" stroke="black" d="M266,-575.7C266,-567.98 266,-558.71 266,-550.11"/>
<polygon fill="black" stroke="black" points="269.5,-550.1 266,-540.1 262.5,-550.1 269.5,-550.1"/>
</g>
<!-- bit&#45;ice40&#45;&gt;iceprog -->
<g id="edge14" class="edge">
<title>bit&#45;ice40&#45;&gt;iceprog</title>
<path fill="none" stroke="black" d="M221,-143.7C221,-135.98 221,-126.71 221,-118.11"/>
<polygon fill="black" stroke="black" points="224.5,-118.1 221,-108.1 217.5,-118.1 224.5,-118.1"/>
</g>
<!-- .json&#45;&gt;nextpnr&#45;ice40 -->
<g id="edge7" class="edge">
<title>.json&#45;&gt;nextpnr&#45;ice40</title>
<path fill="none" stroke="black" d="M251.68,-433.81C243.34,-424.97 232.63,-413.61 223.12,-403.52"/>
<polygon fill="black" stroke="black" points="225.55,-401 216.15,-396.13 220.46,-405.8 225.55,-401"/>
</g>
<!-- .json&#45;&gt;nextpnr&#45;ecp5 -->
<g id="edge8" class="edge">
<title>.json&#45;&gt;nextpnr&#45;ecp5</title>
<path fill="none" stroke="black" d="M280.32,-433.81C288.66,-424.97 299.37,-413.61 308.88,-403.52"/>
<polygon fill="black" stroke="black" points="311.54,-405.8 315.85,-396.13 306.45,-401 311.54,-405.8"/>
</g>
<!-- .asc&#45;&gt;icetime -->
<g id="edge11" class="edge">
<title>.asc&#45;&gt;icetime</title>
<path fill="none" stroke="black" d="M185.79,-290.15C177.28,-281.26 166.25,-269.74 156.48,-259.53"/>
<polygon fill="black" stroke="black" points="158.75,-256.84 149.31,-252.04 153.7,-261.68 158.75,-256.84"/>
</g>
<!-- .asc&#45;&gt;icepack -->
<g id="edge12" class="edge">
<title>.asc&#45;&gt;icepack</title>
<path fill="none" stroke="black" d="M205.08,-288.05C207.42,-280.26 210.25,-270.82 212.88,-262.08"/>
<polygon fill="black" stroke="black" points="216.3,-262.86 215.82,-252.28 209.59,-260.85 216.3,-262.86"/>
</g>
<!-- .config&#45;&gt;eccpack -->
<g id="edge16" class="edge">
<title>.config&#45;&gt;eccpack</title>
<path fill="none" stroke="black" d="M332,-287.7C332,-279.98 332,-270.71 332,-262.11"/>
<polygon fill="black" stroke="black" points="335.5,-262.1 332,-252.1 328.5,-262.1 335.5,-262.1"/>
</g>
</g>
</svg>
