<?xml version="1.0" encoding="UTF-8" standalone="no"?>
<!DOCTYPE svg PUBLIC "-//W3C//DTD SVG 1.1//EN"
 "http://www.w3.org/Graphics/SVG/1.1/DTD/svg11.dtd">
<!-- Generated by graphviz version 2.43.0 (0)
 -->
<!-- Title: tools Pages: 1 -->
<svg width="318pt" height="620pt"
 viewBox="0.00 0.00 317.50 620.00" xmlns="http://www.w3.org/2000/svg" xmlns:xlink="http://www.w3.org/1999/xlink">
<g id="graph0" class="graph" transform="scale(1 1) rotate(0) translate(4 616)">
<title>tools</title>
<polygon fill="white" stroke="transparent" points="-4,4 -4,-616 313.5,-616 313.5,4 -4,4"/>
<!-- ghdl&#45;yosys&#45;plugin -->
<g id="node1" class="node">
<title>ghdl&#45;yosys&#45;plugin</title>
<polygon fill="none" stroke="black" points="142,-540 0,-540 0,-504 142,-504 142,-540"/>
<text text-anchor="middle" x="71" y="-518.3" font-family="Times,serif" font-size="14.00">ghdl&#45;yosys&#45;plugin</text>
</g>
<!-- Yosys -->
<g id="node2" class="node">
<title>Yosys</title>
<polygon fill="none" stroke="black" points="216,-540 160,-540 160,-504 216,-504 216,-540"/>
<text text-anchor="middle" x="188" y="-518.3" font-family="Times,serif" font-size="14.00">Yosys</text>
</g>
<!-- ghdl&#45;yosys&#45;plugin&#45;&gt;Yosys -->
<g id="edge2" class="edge">
<title>ghdl&#45;yosys&#45;plugin&#45;&gt;Yosys</title>
<path fill="none" stroke="black" d="M142.3,-522C144.76,-522 147.22,-522 149.68,-522"/>
<polygon fill="black" stroke="black" points="149.79,-525.5 159.79,-522 149.79,-518.5 149.79,-525.5"/>
</g>
<!-- .json -->
<g id="node14" class="node">
<title>.json</title>
<ellipse fill="none" stroke="black" cx="188" cy="-450" rx="32.49" ry="18"/>
<text text-anchor="middle" x="188" y="-446.3" font-family="Times,serif" font-size="14.00">.json</text>
</g>
<!-- Yosys&#45;&gt;.json -->
<g id="edge4" class="edge">
<title>Yosys&#45;&gt;.json</title>
<path fill="none" stroke="black" d="M188,-503.7C188,-495.98 188,-486.71 188,-478.11"/>
<polygon fill="black" stroke="black" points="191.5,-478.1 188,-468.1 184.5,-478.1 191.5,-478.1"/>
</g>
<!-- nextpnr&#45;ice40 -->
<g id="node3" class="node">
<title>nextpnr&#45;ice40</title>
<polygon fill="none" stroke="black" points="180,-396 64,-396 64,-360 180,-360 180,-396"/>
<text text-anchor="middle" x="122" y="-374.3" font-family="Times,serif" font-size="14.00">nextpnr&#45;ice40</text>
</g>
<!-- .asc -->
<g id="node15" class="node">
<title>.asc</title>
<ellipse fill="none" stroke="black" cx="122" cy="-306" rx="28.7" ry="18"/>
<text text-anchor="middle" x="122" y="-302.3" font-family="Times,serif" font-size="14.00">.asc</text>
</g>
<!-- nextpnr&#45;ice40&#45;&gt;.asc -->
<g id="edge7" class="edge">
<title>nextpnr&#45;ice40&#45;&gt;.asc</title>
<path fill="none" stroke="black" d="M122,-359.7C122,-351.98 122,-342.71 122,-334.11"/>
<polygon fill="black" stroke="black" points="125.5,-334.1 122,-324.1 118.5,-334.1 125.5,-334.1"/>
</g>
<!-- nextpnr&#45;ecp5 -->
<g id="node4" class="node">
<title>nextpnr&#45;ecp5</title>
<polygon fill="none" stroke="black" points="309.5,-396 198.5,-396 198.5,-360 309.5,-360 309.5,-396"/>
<text text-anchor="middle" x="254" y="-374.3" font-family="Times,serif" font-size="14.00">nextpnr&#45;ecp5</text>
</g>
<!-- .config -->
<g id="node16" class="node">
<title>.config</title>
<ellipse fill="none" stroke="black" cx="254" cy="-306" rx="41.69" ry="18"/>
<text text-anchor="middle" x="254" y="-302.3" font-family="Times,serif" font-size="14.00">.config</text>
</g>
<!-- nextpnr&#45;ecp5&#45;&gt;.config -->
<g id="edge8" class="edge">
<title>nextpnr&#45;ecp5&#45;&gt;.config</title>
<path fill="none" stroke="black" d="M254,-359.7C254,-351.98 254,-342.71 254,-334.11"/>
<polygon fill="black" stroke="black" points="257.5,-334.1 254,-324.1 250.5,-334.1 257.5,-334.1"/>
</g>
<!-- icetime -->
<g id="node5" class="node">
<title>icetime</title>
<polygon fill="none" stroke="black" points="89.5,-252 20.5,-252 20.5,-216 89.5,-216 89.5,-252"/>
<text text-anchor="middle" x="55" y="-230.3" font-family="Times,serif" font-size="14.00">icetime</text>
</g>
<!-- icepack -->
<g id="node6" class="node">
<title>icepack</title>
<polygon fill="none" stroke="black" points="178,-252 108,-252 108,-216 178,-216 178,-252"/>
<text text-anchor="middle" x="143" y="-230.3" font-family="Times,serif" font-size="14.00">icepack</text>
</g>
<!-- bit&#45;ice40 -->
<g id="node12" class="node">
<title>bit&#45;ice40</title>
<ellipse fill="none" stroke="black" cx="143" cy="-162" rx="27" ry="18"/>
<text text-anchor="middle" x="143" y="-158.3" font-family="Times,serif" font-size="14.00">.bit</text>
</g>
<!-- icepack&#45;&gt;bit&#45;ice40 -->
<g id="edge11" class="edge">
<title>icepack&#45;&gt;bit&#45;ice40</title>
<path fill="none" stroke="black" d="M143,-215.7C143,-207.98 143,-198.71 143,-190.11"/>
<polygon fill="black" stroke="black" points="146.5,-190.1 143,-180.1 139.5,-190.1 146.5,-190.1"/>
</g>
<!-- iceprog -->
<g id="node7" class="node">
<title>iceprog</title>
<polygon fill="none" stroke="black" points="178,-108 108,-108 108,-72 178,-72 178,-108"/>
<text text-anchor="middle" x="143" y="-86.3" font-family="Times,serif" font-size="14.00">iceprog</text>
</g>
<!-- ice40 -->
<g id="node11" class="node">
<title>ice40</title>
<polygon fill="none" stroke="black" points="170.5,-36 119.5,-36 115.5,-32 115.5,0 166.5,0 170.5,-4 170.5,-36"/>
<polyline fill="none" stroke="black" points="166.5,-32 115.5,-32 "/>
<polyline fill="none" stroke="black" points="166.5,-32 166.5,0 "/>
<polyline fill="none" stroke="black" points="166.5,-32 170.5,-36 "/>
<text text-anchor="middle" x="143" y="-14.3" font-family="Times,serif" font-size="14.00">ice40</text>
</g>
<!-- iceprog&#45;&gt;ice40 -->
<g id="edge13" class="edge">
<title>iceprog&#45;&gt;ice40</title>
<path fill="none" stroke="black" d="M143,-71.7C143,-63.98 143,-54.71 143,-46.11"/>
<polygon fill="black" stroke="black" points="146.5,-46.1 143,-36.1 139.5,-46.1 146.5,-46.1"/>
</g>
<!-- eccpack -->
<g id="node8" class="node">
<title>eccpack</title>
<polygon fill="none" stroke="black" points="290.5,-252 217.5,-252 217.5,-216 290.5,-216 290.5,-252"/>
<text text-anchor="middle" x="254" y="-230.3" font-family="Times,serif" font-size="14.00">eccpack</text>
</g>
<!-- bit&#45;ecp5 -->
<g id="node13" class="node">
<title>bit&#45;ecp5</title>
<ellipse fill="none" stroke="black" cx="254" cy="-162" rx="27" ry="18"/>
<text text-anchor="middle" x="254" y="-158.3" font-family="Times,serif" font-size="14.00">.bit</text>
</g>
<!-- eccpack&#45;&gt;bit&#45;ecp5 -->
<g id="edge15" class="edge">
<title>eccpack&#45;&gt;bit&#45;ecp5</title>
<path fill="none" stroke="black" d="M254,-215.7C254,-207.98 254,-198.71 254,-190.11"/>
<polygon fill="black" stroke="black" points="257.5,-190.1 254,-180.1 250.5,-190.1 257.5,-190.1"/>
</g>
<!-- VHDL -->
<g id="node9" class="node">
<title>VHDL</title>
<polygon fill="none" stroke="black" points="94.5,-612 41.5,-612 41.5,-576 100.5,-576 100.5,-606 94.5,-612"/>
<polyline fill="none" stroke="black" points="94.5,-612 94.5,-606 "/>
<polyline fill="none" stroke="black" points="100.5,-606 94.5,-606 "/>
<text text-anchor="middle" x="71" y="-590.3" font-family="Times,serif" font-size="14.00">VHDL</text>
</g>
<!-- VHDL&#45;&gt;ghdl&#45;yosys&#45;plugin -->
<g id="edge1" class="edge">
<title>VHDL&#45;&gt;ghdl&#45;yosys&#45;plugin</title>
<path fill="none" stroke="black" d="M71,-575.7C71,-567.98 71,-558.71 71,-550.11"/>
<polygon fill="black" stroke="black" points="74.5,-550.1 71,-540.1 67.5,-550.1 74.5,-550.1"/>
</g>
<!-- Verilog -->
<g id="node10" class="node">
<title>Verilog</title>
<polygon fill="none" stroke="black" points="215.5,-612 154.5,-612 154.5,-576 221.5,-576 221.5,-606 215.5,-612"/>
<polyline fill="none" stroke="black" points="215.5,-612 215.5,-606 "/>
<polyline fill="none" stroke="black" points="221.5,-606 215.5,-606 "/>
<text text-anchor="middle" x="188" y="-590.3" font-family="Times,serif" font-size="14.00">Verilog</text>
</g>
<!-- Verilog&#45;&gt;Yosys -->
<g id="edge3" class="edge">
<title>Verilog&#45;&gt;Yosys</title>
<path fill="none" stroke="black" d="M188,-575.7C188,-567.98 188,-558.71 188,-550.11"/>
<polygon fill="black" stroke="black" points="191.5,-550.1 188,-540.1 184.5,-550.1 191.5,-550.1"/>
</g>
<!-- bit&#45;ice40&#45;&gt;iceprog -->
<g id="edge12" class="edge">
<title>bit&#45;ice40&#45;&gt;iceprog</title>
<path fill="none" stroke="black" d="M143,-143.7C143,-135.98 143,-126.71 143,-118.11"/>
<polygon fill="black" stroke="black" points="146.5,-118.1 143,-108.1 139.5,-118.1 146.5,-118.1"/>
</g>
<!-- .json&#45;&gt;nextpnr&#45;ice40 -->
<g id="edge5" class="edge">
<title>.json&#45;&gt;nextpnr&#45;ice40</title>
<path fill="none" stroke="black" d="M173.68,-433.81C165.34,-424.97 154.63,-413.61 145.12,-403.52"/>
<polygon fill="black" stroke="black" points="147.55,-401 138.15,-396.13 142.46,-405.8 147.55,-401"/>
</g>
<!-- .json&#45;&gt;nextpnr&#45;ecp5 -->
<g id="edge6" class="edge">
<title>.json&#45;&gt;nextpnr&#45;ecp5</title>
<path fill="none" stroke="black" d="M202.32,-433.81C210.66,-424.97 221.37,-413.61 230.88,-403.52"/>
<polygon fill="black" stroke="black" points="233.54,-405.8 237.85,-396.13 228.45,-401 233.54,-405.8"/>
</g>
<!-- .asc&#45;&gt;icetime -->
<g id="edge9" class="edge">
<title>.asc&#45;&gt;icetime</title>
<path fill="none" stroke="black" d="M107.79,-290.15C99.28,-281.26 88.25,-269.74 78.48,-259.53"/>
<polygon fill="black" stroke="black" points="80.75,-256.84 71.31,-252.04 75.7,-261.68 80.75,-256.84"/>
</g>
<!-- .asc&#45;&gt;icepack -->
<g id="edge10" class="edge">
<title>.asc&#45;&gt;icepack</title>
<path fill="none" stroke="black" d="M127.08,-288.05C129.42,-280.26 132.25,-270.82 134.88,-262.08"/>
<polygon fill="black" stroke="black" points="138.3,-262.86 137.82,-252.28 131.59,-260.85 138.3,-262.86"/>
</g>
<!-- .config&#45;&gt;eccpack -->
<g id="edge14" class="edge">
<title>.config&#45;&gt;eccpack</title>
<path fill="none" stroke="black" d="M254,-287.7C254,-279.98 254,-270.71 254,-262.11"/>
<polygon fill="black" stroke="black" points="257.5,-262.1 254,-252.1 250.5,-262.1 257.5,-262.1"/>
</g>
</g>
</svg>
